<?xml version="1.0" encoding="UTF-8"?>
<svg id="Vrstva_1" data-name="Vrstva 1" xmlns="http://www.w3.org/2000/svg" viewBox="0 0 1161.56 1161.56">
  <defs>
    <style>
      .cls-1 {
        fill: #151f36;
      }

      .cls-2 {
        fill: #fab523;
      }
    </style>
  </defs>
  <rect class="cls-1" x="-28.89" y="-31.21" width="1218.42" height="1218.42"/>
  <g>
    <path class="cls-2" d="M696.19,353.27l-126.05,205.61-250.31-393.34h-135.88v699.08l93.83,43.79s.02-.03.03-.04V264.69l51.85,82.31,238.69,379.94,236.9-373.68h-109.06Z"/>
    <path class="cls-2" d="M372.58,952.43h0c.02.07.03.15.05.23l92.93,43.37v-250.31c-31.16-49.47-62.32-98.94-93.49-148.41.17,118.37.34,236.75.52,355.12Z"/>
    <path class="cls-2" d="M449.46,165.53l64.37,95.65h366.53c1.43,178.77,2.86,357.55,4.29,536.32-38.98,18.79-77.95,37.59-116.93,56.38.05-83.66.1-167.33.16-250.99-30.08,47.67-60.16,95.35-90.23,143.02-.07,83.37-.14,166.74-.21,250.11h1.79c99.47-45.31,198.93-90.63,298.4-135.94-1.73-231.52-3.45-463.03-5.18-694.55H449.46Z"/>
  </g>
</svg>