<svg version="1.2" xmlns="http://www.w3.org/2000/svg" viewBox="0 0 1050 250" width="1050" height="250">
	<style>
		.s0 { fill: #fab523 } 
		.s1 { fill: #151f36 } 
	</style>
	<g>
		<path fill-rule="evenodd" class="s0" d="m178.52 101.25l-18.97 30.94-37.66-59.19h-20.45v105.19l14.12 6.59 0.01-0.01v-84.46-12.39l7.8 12.39 35.91 57.16 35.65-56.22h-16.41z"/>
		<path class="s0" d="m129.83 191.4q0 0.01 0 0.03l13.98 6.53v-37.66q-7.04-11.17-14.07-22.33 0.04 26.71 0.09 53.43z"/>
		<path class="s0" d="m141.39 73l9.68 14.39h55.15q0.32 40.35 0.64 80.7-8.8 4.25-17.59 8.48 0.01-18.88 0.02-37.77-6.79 10.76-13.58 21.52-0.02 18.82-0.03 37.63h0.27q22.45-10.23 44.9-20.45-0.39-52.25-0.78-104.5c0 0-78.69 0-78.68 0z"/>
	</g>
	<g>
		<path class="s1" d="m386.87 125.78v-40.82c0-1.55 0.33-5.88 0.44-6.32l-2.44 6.32-17.86 40.82h-8.32l-17.86-40.82c-0.66-1.55-2.11-5.66-2.33-6.32 0 0.33 0.33 4.77 0.33 6.32v40.82h-11.87v-66.56h14.42l21.97 48.7 21.85-48.7h13.98v66.56z"/>
		<path class="s1" d="m462.31 125.78l-6.77-16.42h-26.96l-6.77 16.42h-13.09l28.29-66.56h10.54l28.29 66.56zm-20.2-50.03l-9.87 24.18h19.64c0 0-9.76-24.18-9.77-24.18z"/>
		<path class="s1" d="m540.51 125.78h-14.86l-18.42-26.51h-8.32v26.51h-13.54v-66.56h26.18c15.76 0 22.52 9.32 22.52 20.08 0 8.99-4.77 16.09-13.31 18.53l19.74 27.96zm-41.6-36.05h10.43c8.43 0 11.43-4.44 11.43-10.32 0-5.88-3-10.54-11.43-10.54h-10.43z"/>
		<path class="s1" d="m550.93 125.78v-66.56h43.38v10.54h-29.84v15.64h24.3v10.54h-24.3v19.3h29.84v10.54z"/>
		<path class="s1" d="m651.21 125.78l-29.51-31.4v31.4h-13.54v-66.56h13.54v30.4l26.96-30.4h14.75l-28.73 31.73 33.17 34.83z"/>
		<path class="s1" d="m742.06 125.78h-10.21l-28.29-66.56h13.87l19.86 47.81 19.64-47.81h13.42z"/>
		<path class="s1" d="m780.55 52.34l-2-3.33 16.31-13.53 4.88 7.54zm-0.67 73.44v-66.56h13.54v66.56z"/>
		<path class="s1" d="m839.12 69.76v56.02h-13.54v-56.02h-22.52v-10.54h58.57v10.54c0 0-22.52 0-22.51 0z"/>
		<path class="s1" d="m871.4 125.78v-66.56h43.38v10.54h-29.84v15.64h24.3v10.54h-24.3v19.3h29.84v10.54z"/>
		<path class="s1" d="m971.68 125.78l-29.51-31.4v31.4h-13.54v-66.56h13.54v30.4l26.96-30.4h14.75l-28.73 31.73 33.17 34.83z"/>
	</g>
	<g>
		<g>
			<path class="s0" d="m342.2 193.31h-4.77l-13.23-31.12h6.48l9.28 22.35 9.18-22.35h6.28l-13.23 31.12z"/>
			<path class="s0" d="m388.19 193.31h-6.95l-8.61-12.4h-3.89v12.4h-6.33v-31.12h12.24c7.37 0 10.53 4.36 10.53 9.39 0 4.2-2.23 7.52-6.22 8.66zm-19.45-16.85h4.87c3.94 0 5.34-2.08 5.34-4.82 0-2.74-1.4-4.93-5.34-4.93h-4.87z"/>
			<path class="s0" d="m417.64 193.31l-3.16-7.68h-12.61l-3.16 7.68h-6.12l13.23-31.12h4.93l13.23 31.12c0 0-6.33 0-6.34 0zm-9.44-23.39l-4.62 11.31h9.18z"/>
			<path class="s0" d="m440.97 167.12v26.19h-6.33v-26.19h-10.53v-4.93h27.39v4.93z"/>
			<path class="s0" d="m476.69 193.31l-3.16-7.68h-12.61l-3.16 7.68h-6.12l13.23-31.12h4.93l13.23 31.12c0 0-6.33 0-6.34 0zm-9.44-23.39l-4.62 11.31h9.18z"/>
		</g>
		<g>
			<path class="s0" d="m569.76 193.68h-12.61v-31.12h12.09c6.69 0 9.39 3.68 9.39 8.14 0 2.39-1.56 4.88-3.32 6.12 3.06 1.35 4.98 4.46 4.98 7.73 0 5.03-3.06 9.13-10.53 9.13zm-6.27-18.62h4.72c3.16 0 4.46-1.76 4.46-4.05 0-2.29-1.3-4.05-4.46-4.05h-4.72c0 0 0 8.09 0 8.1zm5.18 4.4h-5.18v9.8h5.18c3.94 0 5.5-2.13 5.5-4.93 0-2.8-1.56-4.88-5.5-4.87z"/>
			<path class="s0" d="m614.2 193.68h-6.95l-8.61-12.4h-3.89v12.4h-6.33v-31.12h12.24c7.37 0 10.53 4.36 10.53 9.39 0 4.2-2.23 7.52-6.22 8.66zm-19.45-16.86h4.87c3.94 0 5.34-2.08 5.34-4.82 0-2.74-1.4-4.93-5.34-4.93h-4.87z"/>
			<path class="s0" d="m643.65 193.68l-3.16-7.68h-12.61l-3.16 7.68h-6.12l13.23-31.12h4.93l13.23 31.12c0 0-6.33 0-6.34 0zm-9.44-23.4l-4.62 11.31h9.18zm-1.87-10.94l-0.93-1.56 7.62-6.33 2.28 3.53z"/>
			<path class="s0" d="m678.9 193.68l-16.29-20.54v20.54h-5.65v-31.12h4.41l16.29 20.54v-20.54h5.65v31.12z"/>
			<path class="s0" d="m708.5 181.23v12.45h-6.33v-12.45l-12.19-18.67h6.9l8.56 13.54 8.56-13.54h6.69z"/>
		</g>
		<g>
			<path class="s0" d="m820.25 193.31h-6.95l-8.61-12.4h-3.89v12.4h-6.33v-31.12h12.24c7.37 0 10.53 4.36 10.53 9.39 0 4.2-2.23 7.52-6.22 8.66zm-19.45-16.85h4.87c3.94 0 5.34-2.08 5.34-4.82 0-2.74-1.4-4.93-5.34-4.93h-4.87z"/>
			<path class="s0" d="m843.11 194.2c-9.54 0-16.96-6.9-16.96-16.44 0-9.54 7.42-16.44 16.96-16.44 9.54 0 16.8 6.9 16.8 16.44 0 9.54-7.31 16.44-16.8 16.44zm0-27.86c-6.22 0-10.32 4.67-10.32 11.41 0 6.74 4.1 11.41 10.32 11.41 6.22 0 10.16-4.67 10.16-11.41 0-6.74-4.04-11.41-10.16-11.41z"/>
			<path class="s0" d="m868.41 193.31v-31.12h6.33v26.19h13.95v4.93z"/>
			<path class="s0" d="m895.83 193.31v-31.12h20.28v4.93h-13.95v7.31h11.36v4.93h-11.36v9.03h13.95v4.93c0 0-20.28 0-20.28-0.01z"/>
			<path class="s0" d="m939.08 167.12v26.19h-6.33v-26.19h-10.53v-4.93h27.39v4.93z"/>
			<path class="s0" d="m971.9 180.87v12.45h-6.33v-12.45l-12.19-18.67h6.9l8.56 13.54 8.56-13.54h6.69z"/>
		</g>
		<path fill-rule="evenodd" class="s0" d="m518.6 184.37c-3.1 0-5.6-2.5-5.6-5.6 0-3.1 2.5-5.6 5.6-5.6 3.1 0 5.6 2.5 5.6 5.6 0 3.1-2.5 5.6-5.6 5.6z"/>
		<path fill-rule="evenodd" class="s0" d="m755.92 184.37c-3.1 0-5.6-2.5-5.6-5.6 0-3.1 2.5-5.6 5.6-5.6 3.1 0 5.6 2.5 5.6 5.6 0 3.1-2.5 5.6-5.6 5.6z"/>
	</g>
	<path class="s0" d="m113.42 27.82c4.59-0.33 9.21-0.49 13.77-1.06 2.17-0.27 4.27-1.24 6.37-1.99 4.39-1.56 7.8-4.73 11.69-7.11 4.19-2.57 8.65-4.31 13.68-4.25 3 0.04 6.03-0.21 8.89 0.89 1.97 0.76 3.94 1.59 5.73 2.67 3.4 2.06 6.6 4.46 10.04 6.46 2.03 1.18 4.39 1.79 6.55 2.76 1.86 0.84 3.8 0.7 5.74 0.72 3.11 0.02 6.23-0.1 9.34 0.04 3.1 0.14 6.26 0.2 9.26 0.88 5.79 1.3 10.79 4.13 14.62 8.81 2.02 2.47 3.46 5.28 4.82 8.15 1.86 3.93 3.63 7.9 6.15 11.48 2.69 3.81 6.08 6.86 10.01 9.32 4.52 2.83 8.8 5.98 11.89 10.39 1.45 2.07 2.5 4.45 3.55 6.77 2.19 4.83 1.67 9.96 1.32 15.02-0.18 2.57-0.9 5.1-1.05 7.66-0.15 2.6-0.14 5.25 0.22 7.82 0.37 2.67 1.1 5.32 1.91 7.9 0.71 2.26 1.83 4.39 2.64 6.63 0.77 2.13 1.55 4.29 1.99 6.5 0.47 2.34 0.72 4.75 0.74 7.13 0.04 3.94-0.96 7.73-2.49 11.32-1.15 2.69-2.9 5.04-4.85 7.22-1.87 2.08-3.83 4.08-5.55 6.28-2.47 3.16-4.21 6.73-5.4 10.59-1.16 3.77-1.57 7.66-2.32 11.5-0.67 3.48-1.61 6.91-3.5 10.05-1.46 2.42-3.09 4.67-5.13 6.58-2.71 2.55-5.83 4.44-9.5 5.4-3.13 0.82-6.2 1.85-9.27 2.87-2.14 0.71-4.27 1.48-6.34 2.36-3.18 1.35-5.7 3.62-8.02 6.11-3.03 3.24-5.97 6.58-9.08 9.74-4.43 4.5-9.88 6.78-16.2 6.7-2.6-0.03-5.25-0.24-7.79-0.8-6.02-1.34-11.96-3.17-18.18-3.13-2.89 0.02-5.8 0.56-8.65 1.14-2.85 0.58-5.59 1.68-8.44 2.21-4 0.74-8.06 0.65-12.08-0.1-2.47-0.46-4.8-1.27-7.04-2.47-2.59-1.38-4.67-3.3-6.56-5.46-2.1-2.42-4.02-5.02-6.21-7.35-2.69-2.87-5.73-5.39-9.34-6.99-2.53-1.13-5.26-1.84-7.94-2.6-3.94-1.12-7.99-1.94-11.61-3.97-2.66-1.5-4.83-3.6-6.84-5.88-2.84-3.23-4.75-6.92-5.64-11.12-0.58-2.74-0.92-5.54-1.6-8.26-0.82-3.28-1.46-6.59-2.85-9.74-1.99-4.5-5.05-8.14-8.45-11.56-2.46-2.47-4.45-5.25-6.11-8.33-2.98-5.52-3.48-11.46-2.88-17.5 0.24-2.4 1.15-4.76 1.96-7.07 1.28-3.65 2.96-7.17 4.04-10.88 1.24-4.25 1.64-8.66 1.2-13.13-0.49-5.02-1.39-10.01-1.17-15.1 0.11-2.49 0.39-4.94 1.17-7.28 1.43-4.25 3.9-7.83 7.18-10.9 3.03-2.83 6.65-4.77 10.07-7.01 4.53-2.97 8.36-6.63 11.01-11.37 1.53-2.75 2.76-5.67 4.11-8.52 2.34-4.94 5.26-9.4 9.72-12.76 2.26-1.71 4.68-2.91 7.31-3.9 2.33-0.88 9.36-0.55 9.36-0.48zm142.28 99.79c-0.28-3.38-0.5-7.62-1.01-11.81-0.39-3.18-1.08-6.33-1.75-9.47-0.51-2.4-1.1-4.79-1.86-7.12-0.81-2.5-1.8-4.94-2.83-7.36-1.11-2.59-2.18-5.24-3.6-7.66-2.4-4.11-4.83-8.24-7.69-12.03-3.05-4.03-6.52-7.76-9.97-11.47-3.43-3.7-7.39-6.82-11.65-9.54-3.66-2.34-7.32-4.71-11.13-6.79-2.81-1.54-5.82-2.77-8.83-3.91-3.2-1.21-6.46-2.34-9.77-3.19-3.84-0.98-7.73-1.88-11.65-2.35-6.69-0.82-13.42-1.43-20.18-0.62-3.68 0.44-7.4 0.7-11.03 1.4-3.69 0.71-7.33 1.76-10.93 2.87-3.22 1-6.43 2.13-9.5 3.51-3.38 1.52-6.71 3.21-9.86 5.17-3.91 2.43-7.77 5.01-11.35 7.91-3.3 2.67-6.24 5.78-9.25 8.79-4.85 4.85-8.77 10.43-12.21 16.34-1.5 2.58-2.77 5.3-4.05 7.99-1.06 2.24-2.14 4.5-2.95 6.84-1.04 2.99-1.92 6.05-2.68 9.12-0.81 3.26-1.52 6.56-2.06 9.88-0.97 5.9-1.17 11.86-0.86 17.82 0.19 3.81 0.54 7.63 1.09 11.4 0.46 3.17 1.22 6.31 2.02 9.42 0.74 2.87 1.57 5.74 2.62 8.52 1.05 2.77 2.44 5.4 3.64 8.11 2.01 4.55 4.62 8.77 7.47 12.81 3.97 5.65 8.55 10.81 13.67 15.47 3.78 3.44 7.86 6.5 12.19 9.22 2.42 1.52 4.96 2.87 7.48 4.23q2.5 1.33 5.09 2.46c2.33 1.03 4.67 2.06 7.07 2.92 2.09 0.74 4.26 1.27 6.41 1.83 2.78 0.72 5.55 1.56 8.37 2.03 6.4 1.08 12.85 1.87 19.35 1.54 4.89-0.25 9.78-0.8 14.64-1.42 2.81-0.36 5.6-0.99 8.33-1.74 2.85-0.79 5.64-1.8 8.42-2.85 2.84-1.07 5.72-2.12 8.41-3.5 3.57-1.84 7.01-3.93 10.43-6.03 5.66-3.48 10.68-7.78 15.29-12.52 4.24-4.36 8.24-8.96 11.4-14.19 2.07-3.44 4.21-6.86 5.96-10.46 1.66-3.42 2.97-7.02 4.24-10.62 1.09-3.11 2.07-6.29 2.8-9.5 0.75-3.31 1.28-6.69 1.64-10.07 0.36-3.5 0.4-7.03 0.62-11.4z"/>
</svg>