<svg width="15" height="20" viewBox="0 0 15 20" fill="none" xmlns="http://www.w3.org/2000/svg">
<path d="M5.32031 11.1429L6.14062 8.42857L3.98438 6.66667H6.65625L7.5 4L8.34375 6.66667H11.0156L8.83594 8.42857L9.65625 11.1429L7.5 9.45238L5.32031 11.1429ZM1.875 20V12.6429C1.28125 11.9762 0.820312 11.2143 0.492188 10.3571C0.164062 9.5 0 8.5873 0 7.61905C0 5.49206 0.726562 3.69048 2.17969 2.21429C3.63281 0.738095 5.40625 0 7.5 0C9.59375 0 11.3672 0.738095 12.8203 2.21429C14.2734 3.69048 15 5.49206 15 7.61905C15 8.5873 14.8359 9.5 14.5078 10.3571C14.1797 11.2143 13.7188 11.9762 13.125 12.6429V20L7.5 18.0952L1.875 20ZM7.5 13.3333C9.0625 13.3333 10.3906 12.7778 11.4844 11.6667C12.5781 10.5556 13.125 9.20635 13.125 7.61905C13.125 6.03175 12.5781 4.68254 11.4844 3.57143C10.3906 2.46032 9.0625 1.90476 7.5 1.90476C5.9375 1.90476 4.60938 2.46032 3.51562 3.57143C2.42188 4.68254 1.875 6.03175 1.875 7.61905C1.875 9.20635 2.42188 10.5556 3.51562 11.6667C4.60938 12.7778 5.9375 13.3333 7.5 13.3333ZM3.75 17.1667L7.5 16.1905L11.25 17.1667V14.2143C10.7031 14.5317 10.1133 14.7817 9.48047 14.9643C8.84766 15.1468 8.1875 15.2381 7.5 15.2381C6.8125 15.2381 6.15234 15.1468 5.51953 14.9643C4.88672 14.7817 4.29688 14.5317 3.75 14.2143V17.1667Z" fill="#F6D365"/>
</svg>
